<svg id="Layer_1" data-name="Layer 1" xmlns="http://www.w3.org/2000/svg" width="100" height="100" viewBox="0 0 100 100">
  <defs>
    <style>
      .cls-1 {
        fill: #a6ce39;
      }
    </style>
  </defs>
  <path class="cls-1" d="M83.51,39.65l4.76-5.54C90.09,32,92,29.83,93.8,27.69a1.42,1.42,0,0,0-.31-2.11l-.34-.22c-.23-.15-.45-.3-.69-.43l-7.2-4.08C78.07,16.78,70.64,12.56,63.34,8.4a2.56,2.56,0,0,0-3.45.48c-2.29,2.33-5.66,6.38-8.12,9.34L50,20.32l-1.78-2.13c-2.46-3-5.83-7-8.12-9.33a2.56,2.56,0,0,0-3.45-.49c-7.3,4.17-14.74,8.39-21.94,12.46L7.54,24.9l-.69.43-.34.22a1.43,1.43,0,0,0-.31,2.11l5.52,6.42c1.56,1.8,3.16,3.66,4.74,5.51L6.24,51.52a1.43,1.43,0,0,0-.33,1.13,1.4,1.4,0,0,0,.64,1l.33.21c.23.15.45.3.7.44l7.17,4.06,2.17,1.23V73a1.44,1.44,0,0,0,.72,1.24L49.29,91.91l.1,0,0,0,.13,0,0,0,.15,0h0l.19,0h0l.18,0h0l.14,0,0,0,.12,0,.05,0,.11,0L82.3,74.25A1.42,1.42,0,0,0,83,73V59.53l2.48-1.4,6.81-3.86c.25-.14.47-.29.7-.44l.33-.21a1.4,1.4,0,0,0,.64-1,1.46,1.46,0,0,0-.32-1.13Zm-49.36-7C39.22,29.88,44.47,27.05,50,24c5.52,3,10.78,5.86,15.87,8.6l.84.45,12,6.51L50,55.64l-28.72-16L33,33.21ZM61.9,10.86h0c7.3,4.16,14.74,8.38,21.93,12.45l6.7,3.8c-1.48,1.73-3,3.46-4.44,5.16l-4.77,5.55q-6.84-3.74-13.29-7.2L52.25,22.05l1.69-2C56.37,17.11,59.69,13.11,61.9,10.86ZM9.43,27.08l6.69-3.79C23.31,19.21,30.76,15,38.06,10.83h0l0,0c2.21,2.24,5.53,6.24,8,9.16l1.69,2-16.07,8.7c-4.22,2.28-8.57,4.62-13,7.06l-4.78-5.56Zm0,25,9.08-10.6L47.65,57.77c-.48.53-1.1,1.25-2,2.22-2.3,2.62-5.45,6.22-7.56,8.36l0,0h0c-7.31-4.17-14.76-8.39-22-12.47Zm10.29,9.07c5.61,3.19,11.32,6.42,17,9.63a3,3,0,0,0,1.51.46,2.69,2.69,0,0,0,1.94-.94c2.16-2.2,5.34-5.83,7.67-8.48l.73-.83V88.26L19.76,72.18ZM51.39,88.26l0-27.2.67.77c2.33,2.65,5.51,6.28,7.67,8.48a2.71,2.71,0,0,0,1.94.94,3,3,0,0,0,1.51-.46l17-9.66V72.18ZM84.12,55.67,80,58,61.8,68.34h0l0,0c-2.1-2.14-5.26-5.74-7.56-8.37l-1.93-2.18L81.39,41.53l9,10.55Z"/>
</svg>
